# Export of Cubik Model: iron_helmet
# By Blue
# from Cubik OBJ Exporter v1.0
mtllib iron_helmet.mtl
v -0.001 0 -4.501 0.6901961 0.9647059 0.9647059
v 0 0 -4.501 0.6901961 0.9647059 0.9647059
v 0 0 -4.5 0.6901961 0.9647059 0.9647059
v -0.001 0 -4.5 0.6901961 0.9647059 0.9647059
v 0 16 -4.501 0.6901961 0.9647059 0.9647059
v -0.001 16 -4.501 0.6901961 0.9647059 0.9647059
v -0.001 16 -4.5 0.6901961 0.9647059 0.9647059
v 0 16 -4.5 0.6901961 0.9647059 0.9647059
v 0 16 -4.5 0.6901961 0.9647059 0.9647059
v -0.001 16 -4.5 0.6901961 0.9647059 0.9647059
v -0.001 0 -4.5 0.6901961 0.9647059 0.9647059
v 0 0 -4.5 0.6901961 0.9647059 0.9647059
v -0.001 16 -4.501 0.6901961 0.9647059 0.9647059
v 0 16 -4.501 0.6901961 0.9647059 0.9647059
v 0 0 -4.501 0.6901961 0.9647059 0.9647059
v -0.001 0 -4.501 0.6901961 0.9647059 0.9647059
v 0 16 -4.501 0.6901961 0.9647059 0.9647059
v 0 16 -4.5 0.6901961 0.9647059 0.9647059
v 0 0 -4.5 0.6901961 0.9647059 0.9647059
v 0 0 -4.501 0.6901961 0.9647059 0.9647059
v -0.001 16 -4.5 0.6901961 0.9647059 0.9647059
v -0.001 16 -4.501 0.6901961 0.9647059 0.9647059
v -0.001 0 -4.501 0.6901961 0.9647059 0.9647059
v -0.001 0 -4.5 0.6901961 0.9647059 0.9647059
vn 0 -1 0
vn 0 1 0
vn 0 0 1
vn 0 0 -1
vn 1 0 0
vn -1 0 0
vt 0.5156406 0.07032812
vt 0.515625 0.07032812
vt 0.515625 0.0703125
vt 0.5156406 0.0703125
vt 0.515625 0.1796719
vt 0.5156406 0.1796719
vt 0.5156406 0.1796875
vt 0.515625 0.1796875
vt 0.765625 0.25
vt 0.7656094 0.25
vt 0.7656094 0
vt 0.765625 0
vt 0.5156406 0.25
vt 0.515625 0.25
vt 0.515625 0
vt 0.5156406 0
vt 0.5859531 0.25
vt 0.5859375 0.25
vt 0.5859375 0
vt 0.5859531 0
vt 0.6953125 0.25
vt 0.6952969 0.25
vt 0.6952969 0
vt 0.6953125 0
v -0.001 0 -0.001 0.6509804 0.9843137 0.9490196
v 0 0 -0.001 0.6509804 0.9843137 0.9490196
v 0 0 0 0.6509804 0.9843137 0.9490196
v -0.001 0 0 0.6509804 0.9843137 0.9490196
v 0 16 -0.001 0.6509804 0.9843137 0.9490196
v -0.001 16 -0.001 0.6509804 0.9843137 0.9490196
v -0.001 16 0 0.6509804 0.9843137 0.9490196
v 0 16 0 0.6509804 0.9843137 0.9490196
v 0 16 0 0.6509804 0.9843137 0.9490196
v -0.001 16 0 0.6509804 0.9843137 0.9490196
v -0.001 0 0 0.6509804 0.9843137 0.9490196
v 0 0 0 0.6509804 0.9843137 0.9490196
v -0.001 16 -0.001 0.6509804 0.9843137 0.9490196
v 0 16 -0.001 0.6509804 0.9843137 0.9490196
v 0 0 -0.001 0.6509804 0.9843137 0.9490196
v -0.001 0 -0.001 0.6509804 0.9843137 0.9490196
v 0 16 -0.001 0.6509804 0.9843137 0.9490196
v 0 16 0 0.6509804 0.9843137 0.9490196
v 0 0 0 0.6509804 0.9843137 0.9490196
v 0 0 -0.001 0.6509804 0.9843137 0.9490196
v -0.001 16 0 0.6509804 0.9843137 0.9490196
v -0.001 16 -0.001 0.6509804 0.9843137 0.9490196
v -0.001 0 -0.001 0.6509804 0.9843137 0.9490196
v -0.001 0 0 0.6509804 0.9843137 0.9490196
vt 0.5156406 1.5625E-05
vt 0.515625 1.5625E-05
vt 0.515625 0.2499844
vt 0.5156406 0.2499844
v -12 0 -5 0.8431373 0.7215686 0.9803922
v -1.5 0 -5 0.8431373 0.7215686 0.9803922
v -1.5 0 -4.5 0.8431373 0.7215686 0.9803922
v -12 0 -4.5 0.8431373 0.7215686 0.9803922
v -1.5 0.5 -5 0.8431373 0.7215686 0.9803922
v -12 0.5 -5 0.8431373 0.7215686 0.9803922
v -12 0.5 -4.5 0.8431373 0.7215686 0.9803922
v -1.5 0.5 -4.5 0.8431373 0.7215686 0.9803922
v -1.5 0.5 -4.5 0.8431373 0.7215686 0.9803922
v -12 0.5 -4.5 0.8431373 0.7215686 0.9803922
v -12 0 -4.5 0.8431373 0.7215686 0.9803922
v -1.5 0 -4.5 0.8431373 0.7215686 0.9803922
v -12 0.5 -5 0.8431373 0.7215686 0.9803922
v -1.5 0.5 -5 0.8431373 0.7215686 0.9803922
v -1.5 0 -5 0.8431373 0.7215686 0.9803922
v -12 0 -5 0.8431373 0.7215686 0.9803922
v -1.5 0.5 -5 0.8431373 0.7215686 0.9803922
v -1.5 0.5 -4.5 0.8431373 0.7215686 0.9803922
v -1.5 0 -4.5 0.8431373 0.7215686 0.9803922
v -1.5 0 -5 0.8431373 0.7215686 0.9803922
v -12 0.5 -4.5 0.8431373 0.7215686 0.9803922
v -12 0.5 -5 0.8431373 0.7215686 0.9803922
v -12 0 -5 0.8431373 0.7215686 0.9803922
v -12 0 -4.5 0.8431373 0.7215686 0.9803922
vt 0.328125 0.015625
vt 0 0.015625
vt 0 0
vt 0.328125 0
vt 0 0.03125
vt 0.328125 0.03125
vt 0 0.046875
vt 0.328125 0.046875
vt 0.328125 0.0625
vt 0 0.0625
vt 0.125 0.203125
vt 0.109375 0.203125
vt 0.109375 0.1875
vt 0.125 0.1875
vt 0.140625 0.203125
vt 0.140625 0.1875
v -6 0 -6 0.8627451 0.8862745 0.6156863
v -1.5 0 -6 0.8627451 0.8862745 0.6156863
v -1.5 0 -5 0.8627451 0.8862745 0.6156863
v -6 0 -5 0.8627451 0.8862745 0.6156863
v -1.5 0.5 -6 0.8627451 0.8862745 0.6156863
v -6 0.5 -6 0.8627451 0.8862745 0.6156863
v -6 0.5 -5 0.8627451 0.8862745 0.6156863
v -1.5 0.5 -5 0.8627451 0.8862745 0.6156863
v -1.5 0.5 -5 0.8627451 0.8862745 0.6156863
v -6 0.5 -5 0.8627451 0.8862745 0.6156863
v -6 0 -5 0.8627451 0.8862745 0.6156863
v -1.5 0 -5 0.8627451 0.8862745 0.6156863
v -6 0.5 -6 0.8627451 0.8862745 0.6156863
v -1.5 0.5 -6 0.8627451 0.8862745 0.6156863
v -1.5 0 -6 0.8627451 0.8862745 0.6156863
v -6 0 -6 0.8627451 0.8862745 0.6156863
v -1.5 0.5 -6 0.8627451 0.8862745 0.6156863
v -1.5 0.5 -5 0.8627451 0.8862745 0.6156863
v -1.5 0 -5 0.8627451 0.8862745 0.6156863
v -1.5 0 -6 0.8627451 0.8862745 0.6156863
v -6 0.5 -5 0.8627451 0.8862745 0.6156863
v -6 0.5 -6 0.8627451 0.8862745 0.6156863
v -6 0 -6 0.8627451 0.8862745 0.6156863
v -6 0 -5 0.8627451 0.8862745 0.6156863
vt 0.140625 0.15625
vt 0 0.15625
vt 0 0.125
vt 0.140625 0.125
vt 0 0.1875
vt 0.46875 0.015625
vt 0.46875 0
vt 0.46875 0.03125
vt 0.5 0.0625
vt 0.46875 0.0625
vt 0.46875 0.046875
vt 0.5 0.046875
vt 0.5 0.03125
v -2 0.5 -5 0.7333333 0.9960784 0.9254902
v -1.5 0.5 -5 0.7333333 0.9960784 0.9254902
v -1.5 0.5 -4.5 0.7333333 0.9960784 0.9254902
v -2 0.5 -4.5 0.7333333 0.9960784 0.9254902
v -1.5 5 -5 0.7333333 0.9960784 0.9254902
v -2 5 -5 0.7333333 0.9960784 0.9254902
v -2 5 -4.5 0.7333333 0.9960784 0.9254902
v -1.5 5 -4.5 0.7333333 0.9960784 0.9254902
v -1.5 5 -4.5 0.7333333 0.9960784 0.9254902
v -2 5 -4.5 0.7333333 0.9960784 0.9254902
v -2 0.5 -4.5 0.7333333 0.9960784 0.9254902
v -1.5 0.5 -4.5 0.7333333 0.9960784 0.9254902
v -2 5 -5 0.7333333 0.9960784 0.9254902
v -1.5 5 -5 0.7333333 0.9960784 0.9254902
v -1.5 0.5 -5 0.7333333 0.9960784 0.9254902
v -2 0.5 -5 0.7333333 0.9960784 0.9254902
v -1.5 5 -5 0.7333333 0.9960784 0.9254902
v -1.5 5 -4.5 0.7333333 0.9960784 0.9254902
v -1.5 0.5 -4.5 0.7333333 0.9960784 0.9254902
v -1.5 0.5 -5 0.7333333 0.9960784 0.9254902
v -2 5 -4.5 0.7333333 0.9960784 0.9254902
v -2 5 -5 0.7333333 0.9960784 0.9254902
v -2 0.5 -5 0.7333333 0.9960784 0.9254902
v -2 0.5 -4.5 0.7333333 0.9960784 0.9254902
vt 0.265625 0.234375
vt 0.25 0.234375
vt 0.25 0.21875
vt 0.265625 0.21875
vt 0.1875 0.25
vt 0.203125 0.25
vt 0.203125 0.234375
vt 0.1875 0.234375
vt 0.203125 0.203125
vt 0.21875 0.203125
vt 0.21875 0.0625
vt 0.203125 0.0625
vt 0.234375 0.203125
vt 0.234375 0.0625
vt 0.25 0.203125
vt 0.25 0.0625
vt 0.265625 0.203125
vt 0.265625 0.0625
v -2 4 -5.5 0.8941177 0.8392157 0.8470588
v -1.5 4 -5.5 0.8941177 0.8392157 0.8470588
v -1.5 4 -5 0.8941177 0.8392157 0.8470588
v -2 4 -5 0.8941177 0.8392157 0.8470588
v -1.5 5 -5.5 0.8941177 0.8392157 0.8470588
v -2 5 -5.5 0.8941177 0.8392157 0.8470588
v -2 5 -5 0.8941177 0.8392157 0.8470588
v -1.5 5 -5 0.8941177 0.8392157 0.8470588
v -1.5 5 -5 0.8941177 0.8392157 0.8470588
v -2 5 -5 0.8941177 0.8392157 0.8470588
v -2 4 -5 0.8941177 0.8392157 0.8470588
v -1.5 4 -5 0.8941177 0.8392157 0.8470588
v -2 5 -5.5 0.8941177 0.8392157 0.8470588
v -1.5 5 -5.5 0.8941177 0.8392157 0.8470588
v -1.5 4 -5.5 0.8941177 0.8392157 0.8470588
v -2 4 -5.5 0.8941177 0.8392157 0.8470588
v -1.5 5 -5.5 0.8941177 0.8392157 0.8470588
v -1.5 5 -5 0.8941177 0.8392157 0.8470588
v -1.5 4 -5 0.8941177 0.8392157 0.8470588
v -1.5 4 -5.5 0.8941177 0.8392157 0.8470588
v -2 5 -5 0.8941177 0.8392157 0.8470588
v -2 5 -5.5 0.8941177 0.8392157 0.8470588
v -2 4 -5.5 0.8941177 0.8392157 0.8470588
v -2 4 -5 0.8941177 0.8392157 0.8470588
vt 0.140625 0.21875
vt 0.125 0.21875
vt 0.109375 0.21875
vt 0.15625 0.234375
vt 0.171875 0.234375
vt 0.171875 0.203125
vt 0.15625 0.203125
vt 0.140625 0.234375
vt 0.140625 0.25
vt 0.125 0.25
vt 0.109375 0.25
v -5.5 0 -6.5 0.7450981 0.6627451 0.7215686
v -2 0 -6.5 0.7450981 0.6627451 0.7215686
v -2 0 -6 0.7450981 0.6627451 0.7215686
v -5.5 0 -6 0.7450981 0.6627451 0.7215686
v -2 0.5 -6.5 0.7450981 0.6627451 0.7215686
v -5.5 0.5 -6.5 0.7450981 0.6627451 0.7215686
v -5.5 0.5 -6 0.7450981 0.6627451 0.7215686
v -2 0.5 -6 0.7450981 0.6627451 0.7215686
v -2 0.5 -6 0.7450981 0.6627451 0.7215686
v -5.5 0.5 -6 0.7450981 0.6627451 0.7215686
v -5.5 0 -6 0.7450981 0.6627451 0.7215686
v -2 0 -6 0.7450981 0.6627451 0.7215686
v -5.5 0.5 -6.5 0.7450981 0.6627451 0.7215686
v -2 0.5 -6.5 0.7450981 0.6627451 0.7215686
v -2 0 -6.5 0.7450981 0.6627451 0.7215686
v -5.5 0 -6.5 0.7450981 0.6627451 0.7215686
v -2 0.5 -6.5 0.7450981 0.6627451 0.7215686
v -2 0.5 -6 0.7450981 0.6627451 0.7215686
v -2 0 -6 0.7450981 0.6627451 0.7215686
v -2 0 -6.5 0.7450981 0.6627451 0.7215686
v -5.5 0.5 -6 0.7450981 0.6627451 0.7215686
v -5.5 0.5 -6.5 0.7450981 0.6627451 0.7215686
v -5.5 0 -6.5 0.7450981 0.6627451 0.7215686
v -5.5 0 -6 0.7450981 0.6627451 0.7215686
vt 0.375 0.078125
vt 0.265625 0.078125
vt 0.375 0.0625
vt 0.484375 0.078125
vt 0.484375 0.0625
vt 0.265625 0.09375
vt 0.375 0.09375
vt 0.484375 0.09375
vt 0.265625 0.25
vt 0.25 0.25
vt 0.21875 0.25
vt 0.234375 0.25
vt 0.234375 0.234375
vt 0.21875 0.234375
v -5 0 -7 0.9294118 0.8156863 0.6705883
v -2.5 0 -7 0.9294118 0.8156863 0.6705883
v -2.5 0 -6.5 0.9294118 0.8156863 0.6705883
v -5 0 -6.5 0.9294118 0.8156863 0.6705883
v -2.5 0.5 -7 0.9294118 0.8156863 0.6705883
v -5 0.5 -7 0.9294118 0.8156863 0.6705883
v -5 0.5 -6.5 0.9294118 0.8156863 0.6705883
v -2.5 0.5 -6.5 0.9294118 0.8156863 0.6705883
v -2.5 0.5 -6.5 0.9294118 0.8156863 0.6705883
v -5 0.5 -6.5 0.9294118 0.8156863 0.6705883
v -5 0 -6.5 0.9294118 0.8156863 0.6705883
v -2.5 0 -6.5 0.9294118 0.8156863 0.6705883
v -5 0.5 -7 0.9294118 0.8156863 0.6705883
v -2.5 0.5 -7 0.9294118 0.8156863 0.6705883
v -2.5 0 -7 0.9294118 0.8156863 0.6705883
v -5 0 -7 0.9294118 0.8156863 0.6705883
v -2.5 0.5 -7 0.9294118 0.8156863 0.6705883
v -2.5 0.5 -6.5 0.9294118 0.8156863 0.6705883
v -2.5 0 -6.5 0.9294118 0.8156863 0.6705883
v -2.5 0 -7 0.9294118 0.8156863 0.6705883
v -5 0.5 -6.5 0.9294118 0.8156863 0.6705883
v -5 0.5 -7 0.9294118 0.8156863 0.6705883
v -5 0 -7 0.9294118 0.8156863 0.6705883
v -5 0 -6.5 0.9294118 0.8156863 0.6705883
vt 0.34375 0.140625
vt 0.265625 0.140625
vt 0.265625 0.125
vt 0.34375 0.125
vt 0.265625 0.15625
vt 0.34375 0.15625
vt 0.265625 0.171875
vt 0.34375 0.171875
vt 0.34375 0.1875
vt 0.265625 0.1875
vt 0.171875 0.25
v -12 0 -6 0.6313726 0.6862745 0.7803922
v -7.5 0 -6 0.6313726 0.6862745 0.7803922
v -7.5 0 -5 0.6313726 0.6862745 0.7803922
v -12 0 -5 0.6313726 0.6862745 0.7803922
v -7.5 0.5 -6 0.6313726 0.6862745 0.7803922
v -12 0.5 -6 0.6313726 0.6862745 0.7803922
v -12 0.5 -5 0.6313726 0.6862745 0.7803922
v -7.5 0.5 -5 0.6313726 0.6862745 0.7803922
v -7.5 0.5 -5 0.6313726 0.6862745 0.7803922
v -12 0.5 -5 0.6313726 0.6862745 0.7803922
v -12 0 -5 0.6313726 0.6862745 0.7803922
v -7.5 0 -5 0.6313726 0.6862745 0.7803922
v -12 0.5 -6 0.6313726 0.6862745 0.7803922
v -7.5 0.5 -6 0.6313726 0.6862745 0.7803922
v -7.5 0 -6 0.6313726 0.6862745 0.7803922
v -12 0 -6 0.6313726 0.6862745 0.7803922
v -7.5 0.5 -6 0.6313726 0.6862745 0.7803922
v -7.5 0.5 -5 0.6313726 0.6862745 0.7803922
v -7.5 0 -5 0.6313726 0.6862745 0.7803922
v -7.5 0 -6 0.6313726 0.6862745 0.7803922
v -12 0.5 -5 0.6313726 0.6862745 0.7803922
v -12 0.5 -6 0.6313726 0.6862745 0.7803922
v -12 0 -6 0.6313726 0.6862745 0.7803922
v -12 0 -5 0.6313726 0.6862745 0.7803922
vt 0 0.09375
vt 0.140625 0.09375
vt 0.140625 0.0625
vt 0.5 0.015625
vt 0.5 0
v -11.5 0 -6.5 0.7568628 0.7372549 0.7333333
v -8 0 -6.5 0.7568628 0.7372549 0.7333333
v -8 0 -6 0.7568628 0.7372549 0.7333333
v -11.5 0 -6 0.7568628 0.7372549 0.7333333
v -8 0.5 -6.5 0.7568628 0.7372549 0.7333333
v -11.5 0.5 -6.5 0.7568628 0.7372549 0.7333333
v -11.5 0.5 -6 0.7568628 0.7372549 0.7333333
v -8 0.5 -6 0.7568628 0.7372549 0.7333333
v -8 0.5 -6 0.7568628 0.7372549 0.7333333
v -11.5 0.5 -6 0.7568628 0.7372549 0.7333333
v -11.5 0 -6 0.7568628 0.7372549 0.7333333
v -8 0 -6 0.7568628 0.7372549 0.7333333
v -11.5 0.5 -6.5 0.7568628 0.7372549 0.7333333
v -8 0.5 -6.5 0.7568628 0.7372549 0.7333333
v -8 0 -6.5 0.7568628 0.7372549 0.7333333
v -11.5 0 -6.5 0.7568628 0.7372549 0.7333333
v -8 0.5 -6.5 0.7568628 0.7372549 0.7333333
v -8 0.5 -6 0.7568628 0.7372549 0.7333333
v -8 0 -6 0.7568628 0.7372549 0.7333333
v -8 0 -6.5 0.7568628 0.7372549 0.7333333
v -11.5 0.5 -6 0.7568628 0.7372549 0.7333333
v -11.5 0.5 -6.5 0.7568628 0.7372549 0.7333333
v -11.5 0 -6.5 0.7568628 0.7372549 0.7333333
v -11.5 0 -6 0.7568628 0.7372549 0.7333333
vt 0 0.25
vt 0 0.234375
vt 0.109375 0.234375
vt 0 0.21875
vt 0 0.203125
vt 0.15625 0.25
v -11 0 -7 0.6705883 0.945098 0.6313726
v -8.5 0 -7 0.6705883 0.945098 0.6313726
v -8.5 0 -6.5 0.6705883 0.945098 0.6313726
v -11 0 -6.5 0.6705883 0.945098 0.6313726
v -8.5 0.5 -7 0.6705883 0.945098 0.6313726
v -11 0.5 -7 0.6705883 0.945098 0.6313726
v -11 0.5 -6.5 0.6705883 0.945098 0.6313726
v -8.5 0.5 -6.5 0.6705883 0.945098 0.6313726
v -8.5 0.5 -6.5 0.6705883 0.945098 0.6313726
v -11 0.5 -6.5 0.6705883 0.945098 0.6313726
v -11 0 -6.5 0.6705883 0.945098 0.6313726
v -8.5 0 -6.5 0.6705883 0.945098 0.6313726
v -11 0.5 -7 0.6705883 0.945098 0.6313726
v -8.5 0.5 -7 0.6705883 0.945098 0.6313726
v -8.5 0 -7 0.6705883 0.945098 0.6313726
v -11 0 -7 0.6705883 0.945098 0.6313726
v -8.5 0.5 -7 0.6705883 0.945098 0.6313726
v -8.5 0.5 -6.5 0.6705883 0.945098 0.6313726
v -8.5 0 -6.5 0.6705883 0.945098 0.6313726
v -8.5 0 -7 0.6705883 0.945098 0.6313726
v -11 0.5 -6.5 0.6705883 0.945098 0.6313726
v -11 0.5 -7 0.6705883 0.945098 0.6313726
v -11 0 -7 0.6705883 0.945098 0.6313726
v -11 0 -6.5 0.6705883 0.945098 0.6313726
vt 0.34375 0.203125
vt 0.34375 0.109375
vt 0.265625 0.109375
vt 0.34375 0.21875
vt 0.34375 0.09375
vt 0.234375 0.21875
v -12 0.5 -5 0.8313726 0.8156863 0.6588235
v -11.5 0.5 -5 0.8313726 0.8156863 0.6588235
v -11.5 0.5 -4.5 0.8313726 0.8156863 0.6588235
v -12 0.5 -4.5 0.8313726 0.8156863 0.6588235
v -11.5 5 -5 0.8313726 0.8156863 0.6588235
v -12 5 -5 0.8313726 0.8156863 0.6588235
v -12 5 -4.5 0.8313726 0.8156863 0.6588235
v -11.5 5 -4.5 0.8313726 0.8156863 0.6588235
v -11.5 5 -4.5 0.8313726 0.8156863 0.6588235
v -12 5 -4.5 0.8313726 0.8156863 0.6588235
v -12 0.5 -4.5 0.8313726 0.8156863 0.6588235
v -11.5 0.5 -4.5 0.8313726 0.8156863 0.6588235
v -12 5 -5 0.8313726 0.8156863 0.6588235
v -11.5 5 -5 0.8313726 0.8156863 0.6588235
v -11.5 0.5 -5 0.8313726 0.8156863 0.6588235
v -12 0.5 -5 0.8313726 0.8156863 0.6588235
v -11.5 5 -5 0.8313726 0.8156863 0.6588235
v -11.5 5 -4.5 0.8313726 0.8156863 0.6588235
v -11.5 0.5 -4.5 0.8313726 0.8156863 0.6588235
v -11.5 0.5 -5 0.8313726 0.8156863 0.6588235
v -12 5 -4.5 0.8313726 0.8156863 0.6588235
v -12 5 -5 0.8313726 0.8156863 0.6588235
v -12 0.5 -5 0.8313726 0.8156863 0.6588235
v -12 0.5 -4.5 0.8313726 0.8156863 0.6588235
vt 0.1875 0.203125
vt 0.1875 0.0625
vt 0.171875 0.0625
vt 0.15625 0.0625
v -12 4 -5.5 0.7921569 0.7019608 0.8901961
v -11.5 4 -5.5 0.7921569 0.7019608 0.8901961
v -11.5 4 -5 0.7921569 0.7019608 0.8901961
v -12 4 -5 0.7921569 0.7019608 0.8901961
v -11.5 5 -5.5 0.7921569 0.7019608 0.8901961
v -12 5 -5.5 0.7921569 0.7019608 0.8901961
v -12 5 -5 0.7921569 0.7019608 0.8901961
v -11.5 5 -5 0.7921569 0.7019608 0.8901961
v -11.5 5 -5 0.7921569 0.7019608 0.8901961
v -12 5 -5 0.7921569 0.7019608 0.8901961
v -12 4 -5 0.7921569 0.7019608 0.8901961
v -11.5 4 -5 0.7921569 0.7019608 0.8901961
v -12 5 -5.5 0.7921569 0.7019608 0.8901961
v -11.5 5 -5.5 0.7921569 0.7019608 0.8901961
v -11.5 4 -5.5 0.7921569 0.7019608 0.8901961
v -12 4 -5.5 0.7921569 0.7019608 0.8901961
v -11.5 5 -5.5 0.7921569 0.7019608 0.8901961
v -11.5 5 -5 0.7921569 0.7019608 0.8901961
v -11.5 4 -5 0.7921569 0.7019608 0.8901961
v -11.5 4 -5.5 0.7921569 0.7019608 0.8901961
v -12 5 -5 0.7921569 0.7019608 0.8901961
v -12 5 -5.5 0.7921569 0.7019608 0.8901961
v -12 4 -5.5 0.7921569 0.7019608 0.8901961
v -12 4 -5 0.7921569 0.7019608 0.8901961
vt 0.5 0.078125
vt 0.5 0.09375
g Element #1
usemtl Element
f 1/1/1 2/2/1 4/4/1
f 2/2/1 3/3/1 4/4/1
f 5/5/2 6/6/2 8/8/2
f 6/6/2 7/7/2 8/8/2
f 9/9/3 10/10/3 12/12/3
f 10/10/3 11/11/3 12/12/3
f 13/13/4 14/14/4 16/16/4
f 14/14/4 15/15/4 16/16/4
f 17/17/5 18/18/5 20/20/5
f 18/18/5 19/19/5 20/20/5
f 21/21/6 22/22/6 24/24/6
f 22/22/6 23/23/6 24/24/6
g Element #2
usemtl Element
f 25/25/1 26/26/1 28/16/1
f 26/26/1 27/15/1 28/16/1
f 29/27/2 30/28/2 32/14/2
f 30/28/2 31/13/2 32/14/2
f 33/9/3 34/10/3 36/12/3
f 34/10/3 35/11/3 36/12/3
f 37/13/4 38/14/4 40/16/4
f 38/14/4 39/15/4 40/16/4
f 41/13/5 42/14/5 44/16/5
f 42/14/5 43/15/5 44/16/5
f 45/9/6 46/10/6 48/12/6
f 46/10/6 47/11/6 48/12/6
g Element #3
usemtl Element
f 49/29/1 50/30/1 52/32/1
f 50/30/1 51/31/1 52/32/1
f 53/33/2 54/34/2 56/30/2
f 54/34/2 55/29/2 56/30/2
f 57/35/3 58/36/3 60/33/3
f 58/36/3 59/34/3 60/33/3
f 61/37/4 62/38/4 64/36/4
f 62/38/4 63/35/4 64/36/4
f 65/39/5 66/40/5 68/42/5
f 66/40/5 67/41/5 68/42/5
f 69/39/6 70/43/6 72/42/6
f 70/43/6 71/44/6 72/42/6
g Element #4
usemtl Element
f 73/45/1 74/46/1 76/48/1
f 74/46/1 75/47/1 76/48/1
f 77/49/2 78/44/2 80/46/2
f 78/44/2 79/45/2 80/46/2
f 81/29/3 82/50/3 84/32/3
f 82/50/3 83/51/3 84/32/3
f 85/52/4 86/34/4 88/50/4
f 86/34/4 87/29/4 88/50/4
f 89/53/5 90/54/5 92/56/5
f 90/54/5 91/55/5 92/56/5
f 93/55/6 94/56/6 96/52/6
f 94/56/6 95/57/6 96/52/6
g Element #5
usemtl Element
f 97/58/1 98/59/1 100/61/1
f 98/59/1 99/60/1 100/61/1
f 101/62/2 102/63/2 104/65/2
f 102/63/2 103/64/2 104/65/2
f 105/66/3 106/67/3 108/69/3
f 106/67/3 107/68/3 108/69/3
f 109/70/4 110/67/4 112/71/4
f 110/67/4 111/68/4 112/71/4
f 113/72/5 114/70/5 116/73/5
f 114/70/5 115/71/5 116/73/5
f 117/72/6 118/74/6 120/73/6
f 118/74/6 119/75/6 120/73/6
g Element #6
usemtl Element
f 121/76/1 122/77/1 124/43/1
f 122/77/1 123/39/1 124/43/1
f 125/78/2 126/77/2 128/40/2
f 126/77/2 127/39/2 128/40/2
f 129/79/3 130/80/3 132/82/3
f 130/80/3 131/81/3 132/82/3
f 133/79/4 134/83/4 136/82/4
f 134/83/4 135/43/4 136/82/4
f 137/84/5 138/85/5 140/76/5
f 138/85/5 139/77/5 140/76/5
f 141/86/6 142/85/6 144/78/6
f 142/85/6 143/77/6 144/78/6
g Element #7
usemtl Element
f 145/87/1 146/88/1 148/89/1
f 146/88/1 147/75/1 148/89/1
f 149/87/2 150/90/2 152/89/2
f 150/90/2 151/91/2 152/89/2
f 153/92/3 154/93/3 156/88/3
f 154/93/3 155/87/3 156/88/3
f 157/94/4 158/93/4 160/90/4
f 158/93/4 159/87/4 160/90/4
f 161/95/5 162/96/5 164/58/5
f 162/96/5 163/59/5 164/58/5
f 165/97/6 166/98/6 168/100/6
f 166/98/6 167/99/6 168/100/6
g Element #8
usemtl Element
f 169/101/1 170/102/1 172/104/1
f 170/102/1 171/103/1 172/104/1
f 173/105/2 174/106/2 176/102/2
f 174/106/2 175/101/2 176/102/2
f 177/107/3 178/108/3 180/105/3
f 178/108/3 179/106/3 180/105/3
f 181/109/4 182/110/4 184/108/4
f 182/110/4 183/107/4 184/108/4
f 185/62/5 186/111/5 188/65/5
f 186/111/5 187/80/5 188/65/5
f 189/63/6 190/97/6 192/64/6
f 190/97/6 191/100/6 192/64/6
g Element #9
usemtl Element
f 193/48/1 194/47/1 196/113/1
f 194/47/1 195/112/1 196/113/1
f 197/112/2 198/113/2 200/38/2
f 198/113/2 199/114/2 200/38/2
f 201/37/3 202/54/3 204/36/3
f 202/54/3 203/55/3 204/36/3
f 205/55/4 206/36/4 208/52/4
f 206/36/4 207/34/4 208/52/4
f 209/115/5 210/50/5 212/116/5
f 210/50/5 211/51/5 212/116/5
f 213/52/6 214/57/6 216/50/6
f 214/57/6 215/115/6 216/50/6
g Element #10
usemtl Element
f 217/86/1 218/117/1 220/119/1
f 218/117/1 219/118/1 220/119/1
f 221/118/2 222/119/2 224/120/2
f 222/119/2 223/78/2 224/120/2
f 225/120/3 226/78/3 228/121/3
f 226/78/3 227/40/3 228/121/3
f 229/40/4 230/121/4 232/41/4
f 230/121/4 231/49/4 232/41/4
f 233/122/5 234/84/5 236/79/5
f 234/84/5 235/83/5 236/79/5
f 237/122/6 238/111/6 240/79/6
f 238/111/6 239/80/6 240/79/6
g Element #11
usemtl Element
f 241/123/1 242/74/1 244/109/1
f 242/74/1 243/110/1 244/109/1
f 245/103/2 246/104/2 248/125/2
f 246/104/2 247/124/2 248/125/2
f 249/61/3 250/126/3 252/74/3
f 250/126/3 251/123/3 252/74/3
f 253/124/4 254/125/4 256/127/4
f 254/125/4 255/92/4 256/127/4
f 257/60/5 258/128/5 260/72/5
f 258/128/5 259/70/5 260/72/5
f 261/99/6 262/59/6 264/128/6
f 262/59/6 263/60/6 264/128/6
g Element #12
usemtl Element
f 265/96/1 266/98/1 268/59/1
f 266/98/1 267/99/1 268/59/1
f 269/60/2 270/61/2 272/72/2
f 270/61/2 271/74/2 272/72/2
f 273/81/3 274/129/3 276/131/3
f 274/129/3 275/130/3 276/131/3
f 277/66/4 278/129/4 280/69/4
f 278/129/4 279/130/4 280/69/4
f 281/81/5 282/82/5 284/131/5
f 282/82/5 283/132/5 284/131/5
f 285/43/6 286/82/6 288/114/6
f 286/82/6 287/132/6 288/114/6
g Element #13
usemtl Element
f 289/133/1 290/90/1 292/53/1
f 290/90/1 291/91/1 292/53/1
f 293/94/2 294/134/2 296/90/2
f 294/134/2 295/133/2 296/90/2
f 297/80/3 298/65/3 300/81/3
f 298/65/3 299/129/3 300/81/3
f 301/64/4 302/65/4 304/66/4
f 302/65/4 303/129/4 304/66/4
f 305/100/5 306/64/5 308/67/5
f 306/64/5 307/66/5 308/67/5
f 309/100/6 310/99/6 312/67/6
f 310/99/6 311/70/6 312/67/6
